<svg xmlns="http://www.w3.org/2000/svg" viewBox="0 0 800 600" width="100%" height="100%">
  <!-- Background Elements -->
  <circle cx="400" cy="300" r="250" fill="#f0f4ff" opacity="0.6"/>
  <circle cx="500" cy="200" r="80" fill="#e0e8ff" opacity="0.7"/>
  <circle cx="300" cy="400" r="60" fill="#d0dcff" opacity="0.5"/>
  
  <!-- Data Analysis Illustration -->
  <!-- Laptop -->
  <g transform="translate(400, 300)">
    <!-- Laptop Base -->
    <rect x="-120" y="-20" width="240" height="150" rx="10" fill="#ffffff" stroke="#3a0ca3" stroke-width="2"/>
    <!-- Laptop Screen -->
    <rect x="-110" y="-110" width="220" height="140" rx="5" fill="#ffffff" stroke="#3a0ca3" stroke-width="2"/>
    <!-- Screen Content -->
    <rect x="-100" y="-100" width="200" height="120" fill="#f0f4ff"/>
    
    <!-- Charts on Screen -->
    <!-- Bar Chart -->
    <g transform="translate(-70, -60) scale(0.7)">
      <rect x="0" y="0" width="10" height="40" fill="#4361ee" rx="2"/>
      <rect x="15" y="10" width="10" height="30" fill="#4cc9f0" rx="2"/>
      <rect x="30" y="5" width="10" height="35" fill="#3a0ca3" rx="2"/>
      <rect x="45" y="20" width="10" height="20" fill="#f72585" rx="2"/>
      <rect x="60" y="15" width="10" height="25" fill="#4361ee" rx="2"/>
    </g>
    
    <!-- Pie Chart -->
    <g transform="translate(50, -60) scale(0.7)">
      <circle cx="0" cy="0" r="30" fill="#ffffff" stroke="#3a0ca3" stroke-width="1"/>
      <path d="M0,0 L30,0 A30,30 0 0,1 15,25.98 z" fill="#4361ee"/>
      <path d="M0,0 L15,25.98 A30,30 0 0,1 -25.98,15 z" fill="#4cc9f0"/>
      <path d="M0,0 L-25.98,15 A30,30 0 0,1 -15,-25.98 z" fill="#3a0ca3"/>
      <path d="M0,0 L-15,-25.98 A30,30 0 0,1 30,0 z" fill="#f72585"/>
    </g>
    
    <!-- Line Chart -->
    <g transform="translate(0, 0) scale(0.7)">
      <polyline points="-80,20 -60,0 -40,10 -20,-5 0,15 20,5 40,0 60,10 80,5" 
               fill="none" stroke="#4361ee" stroke-width="2" stroke-linecap="round" stroke-linejoin="round"/>
      <circle cx="-80" cy="20" r="3" fill="#4361ee"/>
      <circle cx="-60" cy="0" r="3" fill="#4361ee"/>
      <circle cx="-40" cy="10" r="3" fill="#4361ee"/>
      <circle cx="-20" cy="-5" r="3" fill="#4361ee"/>
      <circle cx="0" cy="15" r="3" fill="#4361ee"/>
      <circle cx="20" cy="5" r="3" fill="#4361ee"/>
      <circle cx="40" cy="0" r="3" fill="#4361ee"/>
      <circle cx="60" cy="10" r="3" fill="#4361ee"/>
      <circle cx="80" cy="5" r="3" fill="#4361ee"/>
    </g>
    
    <!-- Keyboard -->
    <rect x="-120" y="-20" width="240" height="10" fill="#e0e0e0"/>
    <rect x="-110" y="-5" width="220" height="125" rx="5" fill="#f0f4ff"/>
    <g transform="translate(0, 40)">
      <rect x="-100" y="0" width="200" height="60" rx="3" fill="#e0e0e0"/>
      <rect x="-95" y="5" width="15" height="15" rx="2" fill="#ffffff"/>
      <rect x="-75" y="5" width="15" height="15" rx="2" fill="#ffffff"/>
      <rect x="-55" y="5" width="15" height="15" rx="2" fill="#ffffff"/>
      <rect x="-35" y="5" width="15" height="15" rx="2" fill="#ffffff"/>
      <rect x="-15" y="5" width="15" height="15" rx="2" fill="#ffffff"/>
      <rect x="5" y="5" width="15" height="15" rx="2" fill="#ffffff"/>
      <rect x="25" y="5" width="15" height="15" rx="2" fill="#ffffff"/>
      <rect x="45" y="5" width="15" height="15" rx="2" fill="#ffffff"/>
      <rect x="65" y="5" width="15" height="15" rx="2" fill="#ffffff"/>
      <rect x="85" y="5" width="15" height="15" rx="2" fill="#ffffff"/>
      
      <rect x="-95" y="25" width="15" height="15" rx="2" fill="#ffffff"/>
      <rect x="-75" y="25" width="15" height="15" rx="2" fill="#ffffff"/>
      <rect x="-55" y="25" width="15" height="15" rx="2" fill="#ffffff"/>
      <rect x="-35" y="25" width="15" height="15" rx="2" fill="#ffffff"/>
      <rect x="-15" y="25" width="15" height="15" rx="2" fill="#ffffff"/>
      <rect x="5" y="25" width="15" height="15" rx="2" fill="#ffffff"/>
      <rect x="25" y="25" width="15" height="15" rx="2" fill="#ffffff"/>
      <rect x="45" y="25" width="15" height="15" rx="2" fill="#ffffff"/>
      <rect x="65" y="25" width="15" height="15" rx="2" fill="#ffffff"/>
      <rect x="85" y="25" width="15" height="15" rx="2" fill="#ffffff"/>
      
      <rect x="-75" y="45" width="150" height="10" rx="5" fill="#ffffff"/>
    </g>
  </g>
  
  <!-- Decorative Elements -->
  <!-- Clipboard with Survey -->
  <g transform="translate(200, 250)">
    <rect x="-40" y="-60" width="80" height="120" rx="5" fill="#ffffff" stroke="#3a0ca3" stroke-width="2"/>
    <rect x="-30" y="-50" width="60" height="10" rx="2" fill="#f0f4ff"/>
    <rect x="-30" y="-35" width="60" height="10" rx="2" fill="#f0f4ff"/>
    <rect x="-30" y="-20" width="60" height="10" rx="2" fill="#f0f4ff"/>
    
    <rect x="-30" y="0" width="15" height="15" rx="2" fill="#ffffff" stroke="#4361ee" stroke-width="2"/>
    <rect x="-28" y="2" width="11" height="11" rx="1" fill="#4361ee"/>
    <rect x="-30" y="25" width="15" height="15" rx="2" fill="#ffffff" stroke="#4361ee" stroke-width="2"/>
    <rect x="-30" y="50" width="15" height="15" rx="2" fill="#ffffff" stroke="#4361ee" stroke-width="2"/>
    
    <line x1="-10" y1="7" x2="30" y2="7" stroke="#666" stroke-width="1"/>
    <line x1="-10" y1="32" x2="30" y2="32" stroke="#666" stroke-width="1"/>
    <line x1="-10" y1="57" x2="30" y2="57" stroke="#666" stroke-width="1"/>
  </g>
  
  <!-- Person analyzing data -->
  <g transform="translate(600, 300)">
    <!-- Head -->
    <circle cx="0" cy="-50" r="30" fill="#f8d0cd"/>
    <!-- Hair -->
    <path d="M-30,-50 Q-20,-90 0,-90 Q20,-90 30,-50" fill="#6b4f4f"/>
    <!-- Body -->
    <path d="M0,-20 L-40,50 L-30,60 L-10,30 L-10,100 L10,100 L10,30 L30,60 L40,50 Z" fill="#4361ee"/>
    <!-- Arms -->
    <path d="M-40,50 L-70,20 L-60,10 L-30,40 Z" fill="#4361ee"/>
    <path d="M40,50 L70,20 L60,10 L30,40 Z" fill="#4361ee"/>
    <!-- Face -->
    <circle cx="-10" cy="-55" r="3" fill="#333"/>
    <circle cx="10" cy="-55" r="3" fill="#333"/>
    <path d="M-5,-40 Q0,-35 5,-40" stroke="#333" stroke-width="2" fill="none"/>
  </g>
  
  <!-- Floating Icons -->
  <!-- Survey Icon -->
  <g transform="translate(150, 150)">
    <circle cx="0" cy="0" r="25" fill="#ffffff" stroke="#4361ee" stroke-width="2"/>
    <rect x="-10" y="-12" width="20" height="24" rx="2" fill="none" stroke="#4361ee" stroke-width="2"/>
    <line x1="-5" y1="-5" x2="5" y2="-5" stroke="#4361ee" stroke-width="2"/>
    <line x1="-5" y1="0" x2="5" y2="0" stroke="#4361ee" stroke-width="2"/>
    <line x1="-5" y1="5" x2="5" y2="5" stroke="#4361ee" stroke-width="2"/>
  </g>
  
  <!-- Analytics Icon -->
  <g transform="translate(650, 150)">
    <circle cx="0" cy="0" r="25" fill="#ffffff" stroke="#4361ee" stroke-width="2"/>
    <rect x="-15" y="10" width="8" height="-15" fill="#4361ee" rx="1"/>
    <rect x="-5" y="10" width="8" height="-20" fill="#4361ee" rx="1"/>
    <rect x="5" y="10" width="8" height="-10" fill="#4361ee" rx="1"/>
    <rect x="15" y="10" width="8" height="-25" fill="#4361ee" rx="1"/>
  </g>
  
  <!-- Counseling Icon -->
  <g transform="translate(400, 150)">
    <circle cx="0" cy="0" r="25" fill="#ffffff" stroke="#4361ee" stroke-width="2"/>
    <circle cx="-7" cy="-5" r="5" fill="#4361ee"/>
    <circle cx="7" cy="-5" r="5" fill="#4361ee"/>
    <path d="M-10,5 Q0,15 10,5" stroke="#4361ee" stroke-width="2" fill="none"/>
  </g>
</svg>